HIERARCHY
ROOT Hips
{
	OFFSET 0.000000 0.000000 0.000000 
	CHANNELS 6 Xposition Yposition Zposition Yrotation Zrotation Xrotation 
	JOINT Lumbar
	{
		OFFSET 0.000000 0.000000 0.000000 
		CHANNELS 3 Zrotation Xrotation Yrotation
		JOINT Neck
		{
			OFFSET 0.000000 0.445665 0.000000 
			CHANNELS 3 Zrotation Xrotation Yrotation
			End Site
			{
				OFFSET 0.000000 0.227535 0.000000 
			}
		}
		JOINT RightShoulder
		{
			OFFSET 0.019635 0.377685 0.194865 
			CHANNELS 3 Zrotation Xrotation Yrotation
			JOINT RightElbow
			{
				OFFSET 0.000000 -0.243375 0.000000 
				CHANNELS 2 Zrotation Yrotation
				JOINT RightWrist
				{
					OFFSET 0.000000 -0.264825 0.000000 
					CHANNELS 2 Zrotation Xrotation
					End Site
					{
						OFFSET 0.006600 -0.176220 0.000990 
					}
				}
			}
		}
		JOINT LeftShoulder
		{
			OFFSET 0.019635 0.377685 -0.194865 
			CHANNELS 3 Zrotation Xrotation Yrotation
			JOINT LeftElbow
			{
				OFFSET 0.000000 -0.243375 0.000000 
				CHANNELS 2 Zrotation Yrotation
				JOINT LeftWrist
				{
					OFFSET 0.000000 -0.264825 0.000000 
					CHANNELS 2 Zrotation Xrotation
					End Site
					{
						OFFSET 0.006600 -0.176220 -0.000990 
					}
				}
			}
		}
	}
	JOINT RightHip
	{
		OFFSET 0.052140 -0.069960 0.075570 
		CHANNELS 3 Zrotation Xrotation Yrotation
		JOINT RightKnee
		{
			OFFSET 0.000000 -0.402270 0.000000 
			CHANNELS 1 Zrotation
			JOINT RightAnkle
			{
				OFFSET 0.000000 -0.404085 0.000000 
				CHANNELS 3 Zrotation Xrotation Yrotation
				End Site
				{
					OFFSET 0.204105 -0.089430 0.008415 
				}
			}
		}
	}
	JOINT LeftHip
	{
		OFFSET 0.052140 -0.069960 -0.075570 
		CHANNELS 3 Zrotation Xrotation Yrotation
		JOINT LeftKnee
		{
			OFFSET 0.000000 -0.402270 0.000000 
			CHANNELS 1 Zrotation
			JOINT LeftAnkle
			{
				OFFSET 0.000000 -0.404085 0.000000 
				CHANNELS 3 Zrotation Xrotation Yrotation
				End Site
				{
					OFFSET 0.204105 -0.089430 -0.008415 
				}
			}
		}
	}
}
MOTION
Frames: 11
Frame Time: 0.02
0.06504 0.00885 0.62752 -570.38353 -25.61488 3.29667 41.4998 -0.64746 0.99491 -23.76189 1.74383 -2.11994 -33.89867 -1.88065 -30.50378 111.10458 82.74189 -0.87625 0.01064 -28.08619 6.51878 33.00546 103.26633 -87.68261 8.69739 0.9441 20.88446 -3.61585 -11.70008 -35.06146 -6.70174 -1.5282 -2.98278 43.34699 -6.43156 16.0484 -18.65055 -9.19575 1.97588 3.32252
0.05317 0.00841 0.62388 -570.0543 -25.39179 3.31688 41.39783 -0.62666 1.03188 -23.03477 1.78479 -2.11994 -31.13078 -2.84338 -33.11688 107.10325 82.19125 -1.51179 0.07399 -25.71025 7.21853 35.88294 99.24922 -87.76115 8.29495 0.81111 21.26011 -4.04875 -11.20765 -37.22924 -7.04913 -1.41968 -2.94642 42.40811 -6.37396 17.23746 -19.1423 -8.96068 1.81908 3.23744
0.04155 0.00751 0.62078 -569.72481 -25.01766 3.29386 41.14048 -0.56749 0.97215 -22.26899 1.82138 -2.11994 -28.03159 -3.86649 -35.80042 102.23977 81.39094 -2.44864 0.15883 -23.26274 7.89618 38.85117 94.52519 -87.75095 7.5973 0.64649 21.80394 -4.5359 -10.6806 -39.88476 -7.47558 -1.2797 -2.89891 41.29237 -6.23936 18.65112 -19.63472 -8.7146 1.64272 3.14289
0.02989 0.0068 0.61747 -569.40359 -24.69491 3.2951 40.92892 -0.52431 0.95898 -21.52093 1.85213 -2.11994 -25.07888 -4.86985 -38.43181 97.72821 80.70682 -3.24015 0.23604 -20.8665 8.6166 41.73385 90.05689 -87.77837 7.04343 0.49805 22.27716 -5.01531 -10.1745 -42.33215 -7.87359 -1.15394 -2.85658 40.24069 -6.14845 19.9282 -20.12178 -8.4753 1.48007 3.05496
0.01788 0.0062 0.61401 -569.04936 -24.43984 3.27799 40.81813 -0.48708 0.93648 -20.76869 1.9156 -2.11994 -22.11932 -5.84643 -41.16948 93.34906 80.02649 -4.06193 0.31126 -18.37278 9.20968 44.82287 85.826 -87.82694 6.45425 0.33874 22.72598 -5.42645 -9.64308 -44.73976 -8.24483 -1.02601 -2.81269 39.24957 -6.02098 21.36018 -20.63133 -8.22612 1.29658 2.95687
0.00669 0.00525 0.61099 -568.76117 -24.01291 3.28654 40.46551 -0.42754 0.9082 -20.01915 1.91163 -2.11994 -19.11413 -6.88518 -43.69271 88.52027 79.26612 -4.89413 0.39534 -16.0764 10.04914 47.49769 80.96915 -87.80848 5.86903 0.196 23.26599 -5.98825 -9.15772 -47.32788 -8.68527 -0.89832 -2.77078 38.09693 -5.94988 22.51635 -21.09238 -7.99629 1.152 2.87784
-0.00248 0.00331 0.60911 -568.68087 -23.11151 3.39956 39.44126 -0.32696 0.90704 -19.26451 1.70219 -2.11994 -15.94797 -8.15146 -45.62531 82.45141 78.44176 -5.6798 0.46765 -14.29141 11.69111 48.9865 74.29498 -87.60363 5.33479 0.10451 24.00845 -6.99306 -8.80537 -50.43175 -9.34071 -0.75085 -2.72486 36.49913 -6.07061 22.89319 -21.43634 -7.81667 1.1201 2.85362
-0.0108 0.00106 0.60764 -568.662 -22.04962 3.53584 38.18708 -0.20367 0.89966 -18.51848 1.4286 -2.11994 -12.77195 -9.46478 -47.33262 76.00254 77.53346 -6.46472 0.55093 -12.71981 13.56005 50.05468 67.06777 -87.33669 4.81923 0.03167 24.8368 -8.14044 -8.50189 -53.67036 -10.05516 -0.60953 -2.68339 34.75355 -6.24748 22.97748 -21.72848 -7.65824 1.12795 2.84894
-0.01941 -0.00097 0.60593 -568.599 -21.08543 3.64636 37.06539 -0.08316 0.88259 -17.7829 1.19744 -2.11994 -9.677 -10.71086 -49.12896 69.86561 76.59085 -7.25417 0.65018 -11.08476 15.24845 51.32738 60.26558 -87.11203 4.31543 -0.04785 25.63304 -9.19589 -8.17769 -56.7622 -10.71368 -0.48441 -2.64816 33.10388 -6.38783 23.16974 -22.0331 -7.49427 1.11754 2.83553
-0.02843 -0.00338 0.60446 -568.6062 -20.01085 3.81906 35.81912 0.00832 0.91555 -16.9844 0.91002 -2.11994 -6.24237 -12.1542 -50.98765 63.10503 75.91712 -8.0441 0.66853 -9.30175 17.26259 52.553 52.69881 -86.82646 3.71726 -0.13625 26.41215 -10.36672 -7.84432 -60.24868 -11.49658 -0.27981 -2.57851 31.32601 -6.57291 23.47313 -22.38394 -7.31269 1.10764 2.82133
-0.0364 -0.00506 0.60257 -568.47956 -19.13073 3.86886 34.78093 0.16334 0.84339 -16.32062 0.72468 -2.11994 -3.52297 -13.19512 -52.65803 57.57125 74.7023 -8.81921 0.84932 -7.88317 18.65271 53.76829 46.61045 -86.65242 3.3223 -0.20114 27.23735 -11.33177 -7.54414 -62.91819 -12.03503 -0.24037 -2.5807 29.78309 -6.67795 23.47551 -22.62687 -7.1729 1.10589 2.8133
